<svg width="31" height="31" viewBox="0 0 31 31" fill="none" xmlns="http://www.w3.org/2000/svg">
<path fill-rule="evenodd" clip-rule="evenodd" d="M29.1656 16.2001C29.1381 16.6964 28.7134 17.0764 28.2171 17.0488L14.2379 16.2722C13.7417 16.2446 13.3617 15.82 13.3892 15.3237C13.4168 14.8274 13.8415 14.4474 14.3378 14.475L28.3169 15.2516C28.8132 15.2791 29.1932 15.7038 29.1656 16.2001Z" fill="white"/>
<path fill-rule="evenodd" clip-rule="evenodd" d="M29.1657 16.2004C29.1465 16.5456 28.9313 16.8493 28.6119 16.9818L10.9968 24.2891C10.6559 24.4305 10.2633 24.3495 10.0062 24.0848C9.74917 23.82 9.67977 23.4252 9.83114 23.0887L13.3251 15.3204L10.7131 7.213C10.5999 6.86176 10.7126 6.47703 10.9974 6.24239C11.2822 6.00774 11.6814 5.97073 12.0045 6.14901L28.7019 15.3625C29.0046 15.5295 29.1849 15.8552 29.1657 16.2004ZM13.1225 8.82174L15.1445 15.0979C15.2129 15.31 15.2001 15.5399 15.1087 15.7431L12.4039 21.7567L26.1956 16.0354L13.1225 8.82174Z" fill="white"/>
</svg>
